<?xml version="1.0" encoding="UTF-8"?>
<svg width="154px" height="197px" viewBox="0 0 154 197" version="1.1" xmlns="http://www.w3.org/2000/svg" xmlns:xlink="http://www.w3.org/1999/xlink">
    <!-- Generator: sketchtool 46.2 (44496) - http://www.bohemiancoding.com/sketch -->
    <title>C5CE89EF-053C-4EB3-AAC0-1168C4227C1E</title>
    <desc>Created with sketchtool.</desc>
    <defs>
        <path d="M6.07578125,32.2145897 C7.03828125,36.7054711 9.384375,39.3401216 11.7304688,40.8969605 L36.4546875,40.8969605 C39.4625,38.8610942 42.5304687,35.0288754 42.5304687,27.843465 L42.5304687,9.28115502 C42.5304687,9.28115502 42.8914062,4.67051672 47.1625,3.17355623 C47.1625,3.17355623 49.6289062,1.43708207 46.9820312,0.479027356 C46.9820312,0.479027356 35.2515625,-0.479027356 35.2515625,9.10151976 L35.2515625,23.2328267 C35.2515625,23.2328267 35.7328125,28.4422492 32.965625,30.5978723 L32.965625,13.1133739 C32.965625,13.1133739 33.1460937,7.54468085 36.0335937,5.44893617 C36.0335937,5.44893617 37.9585937,2.03586626 33.7476562,2.93404255 C33.7476562,2.93404255 25.6867187,4.07173252 25.3257812,13.4726444 L25.1453125,31.4361702 L23.2203125,31.4361702 L23.0398437,13.4726444 C22.6789062,4.13161094 14.6179687,2.93404255 14.6179687,2.93404255 C10.4070312,1.97598784 12.3320312,5.44893617 12.3320312,5.44893617 C15.2195312,7.54468085 15.4,13.1133739 15.4,13.1133739 L15.4,30.7775076 C12.6328125,28.8015198 13.1140625,23.2328267 13.1140625,23.2328267 L13.1140625,9.10151976 C13.1140625,-0.479027356 1.38359375,0.479027356 1.38359375,0.479027356 C-1.3234375,1.43708207 1.203125,3.17355623 1.203125,3.17355623 C5.4140625,4.73039514 5.83515625,9.28115502 5.83515625,9.28115502 L5.83515625,22.274772 L6.07578125,32.2145897 L6.07578125,32.2145897 Z" id="path-1"></path>
    </defs>
    <g id="Page-1" stroke="none" stroke-width="1" fill="none" fill-rule="evenodd">
        <g id="CM-Desktop" transform="translate(-906.000000, -1237.000000)">
            <g id="Group-4" transform="translate(796.000000, 1237.000000)">
                <g id="github-copy" transform="translate(110.000000, 0.000000)">
                    <g id="github-2" transform="translate(0.000000, 155.683891)" fill-rule="nonzero" fill="#66669F">
                        <path d="M29.6610431,17.683772 L16.7200715,17.683772 C16.3861317,17.6839475 16.1154642,17.9524642 16.1152872,18.2837503 L16.1152872,24.5606177 C16.1154633,24.8920589 16.3859761,25.160849 16.7200715,25.1615504 L21.7683844,25.1615504 L21.7683844,32.9596778 C21.7683844,32.9596778 20.6348148,33.343333 17.5009037,33.343333 C13.8035748,33.343333 8.63853791,32.0027664 8.63853791,20.7355174 C8.63853791,9.46604159 14.0168206,7.9829563 19.0660956,7.9829563 C23.4368321,7.9829563 25.3198083,8.7467675 26.5178326,9.11419854 C26.8942996,9.2287225 27.2425475,8.85715587 27.2425475,8.52535451 L28.6862053,2.46099267 C28.6862053,2.3060672 28.6332947,2.11901139 28.455002,1.99208067 C27.9685452,1.64787255 25.0000999,0 17.5009037,0 C8.86172446,0 0,3.64663378 0,21.1748441 C0,38.7043269 10.1460091,41.3161094 18.6957213,41.3161094 C25.7748395,41.3161094 30.0692565,38.3149454 30.0692565,38.3149454 C30.2462665,38.2176 30.2655067,37.9723279 30.2655067,37.8597127 L30.2655067,18.2834322 C30.2655067,17.9525852 29.9948609,17.683772 29.6610431,17.683772 L29.6610431,17.683772 Z M96.3537369,2.10024219 C96.355103,1.94112945 96.2924993,1.78803593 96.1797784,1.67483765 C96.0670576,1.56163938 95.9135133,1.49766935 95.7531213,1.49708266 L88.4662088,1.49708266 C88.3055546,1.49767217 88.1517165,1.5615506 88.0385378,1.67466519 C87.9253591,1.78777978 87.8621109,1.9408646 87.8627073,2.10024219 L87.8646313,16.0699385 L76.506809,16.0699385 L76.506809,2.10024219 C76.5080037,1.94107049 76.4452566,1.78797908 76.332434,1.67479954 C76.2196115,1.56161999 76.0660022,1.4976703 75.9055522,1.49708266 L68.619281,1.49708266 C68.2852147,1.49883519 68.0157848,1.76882969 68.0173828,2.10024219 L68.0173828,39.9262339 C68.0173828,40.2596259 68.2877079,40.530984 68.619281,40.530984 L75.9055522,40.530984 C76.2387286,40.530984 76.506809,40.2593078 76.506809,39.9262339 L76.506809,23.7465432 L87.8646313,23.7465432 L87.8447498,39.9262339 C87.8447498,40.2596259 88.1153955,40.530984 88.448572,40.530984 L95.75248,40.530984 C96.0862978,40.530984 96.3530955,40.2593078 96.3537369,39.9262339 L96.3537369,2.10024219 L96.3537369,2.10024219 Z M43.411066,7.06421964 C43.411066,4.46102639 41.3074687,2.35760298 38.7122838,2.35760298 C36.1196642,2.35760298 34.0144635,4.46102639 34.0144635,7.06421964 C34.0144635,9.66423167 36.1196642,11.7730632 38.7122838,11.7730632 C41.3074687,11.7730632 43.411066,9.66423167 43.411066,7.06421964 L43.411066,7.06421964 Z M42.8899768,31.9470951 L42.8899768,14.4866448 C42.8908653,14.1552012 42.6212116,13.8855559 42.2871165,13.8838034 L35.023613,13.8838034 C34.6904365,13.8838034 34.3922131,14.2248303 34.3922131,14.5566316 L34.3922131,39.5718459 C34.3922131,40.3073442 34.8539784,40.525576 35.4517079,40.525576 L41.9959479,40.525576 C42.7139288,40.525576 42.8899768,40.1756416 42.8899768,39.5603935 L42.8899768,31.9470951 L42.8899768,31.9470951 Z M124.045544,13.9407472 L116.814748,13.9407472 C116.483175,13.9407472 116.213171,14.2117873 116.213171,14.5454974 L116.213171,33.0926528 C116.213171,33.0926528 114.376051,34.4262207 111.769001,34.4262207 C109.161951,34.4262207 108.470265,33.2526682 108.470265,30.7200981 L108.470265,14.5454974 C108.470265,14.2117873 108.200581,13.9407472 107.869008,13.9407472 L100.530147,13.9407472 C100.199215,13.9407472 99.9276076,14.2117873 99.9276076,14.5454974 L99.9276076,31.9445501 C99.9276076,39.4668656 104.153722,41.307202 109.967796,41.307202 C114.737125,41.307202 118.582283,38.6935107 118.582283,38.6935107 C118.582283,38.6935107 118.765386,40.0706614 118.848119,40.2341761 C118.931172,40.3970546 119.146984,40.5615238 119.380111,40.5615238 L124.049071,40.541164 C124.380003,40.541164 124.65161,40.2694877 124.65161,39.9373682 L124.649045,14.5458155 C124.649045,14.2117873 124.37872,13.9407472 124.045544,13.9407472 L124.045544,13.9407472 Z M140.956093,34.4033159 C138.448131,34.3276028 136.746974,33.1982693 136.746974,33.1982693 L136.746974,21.2200174 C136.746974,21.2200174 138.425042,20.1994817 140.484066,20.0168796 C143.087909,19.7856048 145.596834,20.5659584 145.596834,26.7276656 C145.597155,33.2256278 144.464868,34.5079781 140.956093,34.4033159 L140.956093,34.4033159 Z M143.808135,13.0913612 C139.70131,13.0913612 136.907951,14.9091109 136.907951,14.9091109 L136.907951,2.10056031 C136.907951,1.76653209 136.638909,1.49708266 136.306694,1.49708266 L128.999579,1.49708266 C128.839039,1.49784003 128.685383,1.56185675 128.572435,1.6750404 C128.459487,1.78822405 128.396508,1.94129628 128.397361,2.10056031 L128.397361,39.9262339 C128.397361,40.2596259 128.667365,40.530984 129.000541,40.530984 L134.07066,40.530984 C134.298657,40.530984 134.471498,40.4142332 134.599125,40.2099988 C134.725148,40.0067188 134.906968,38.4660534 134.906968,38.4660534 C134.906968,38.4660534 137.894974,41.2750717 143.551278,41.2750717 C150.191719,41.2750717 154,37.933517 154,26.2743416 C154,14.614848 147.917846,13.0913612 143.808135,13.0913612 L143.808135,13.0913612 Z M63.8319937,13.8806222 L58.366168,13.8806222 L58.3578306,6.71683029 C58.3578306,6.44579025 58.2170563,6.31027023 57.9011961,6.31027023 L50.4526657,6.31027023 C50.1631004,6.31027023 50.0075753,6.43688283 50.0075753,6.71269471 L50.0075753,14.1157144 C50.0075753,14.1157144 46.2749727,15.0093194 46.0226052,15.0818513 C45.7640082,15.1562028 45.5860951,15.3911894 45.5861729,15.6582885 L45.5861729,20.3101882 C45.5861729,20.6448526 45.8555359,20.913984 46.1887124,20.913984 L50.0075753,20.913984 L50.0075753,32.1048836 C50.0075753,40.4174145 55.884821,41.2340339 59.8508716,41.2340339 C61.6629797,41.2340339 63.8307111,40.6569604 64.1885791,40.5252578 C64.4050316,40.4463636 64.5307344,40.2239962 64.5307344,39.9828596 L64.5368271,34.8655473 C64.5368271,34.5315191 64.2527132,34.2620697 63.9326842,34.2620697 C63.6142586,34.2620697 62.7994353,34.390591 61.9605617,34.390591 C59.2759097,34.390591 58.366168,33.1521416 58.366168,31.5491243 L58.3658474,20.9136658 L63.8319937,20.9136658 C64.1651702,20.9136658 64.4348539,20.6442164 64.4348539,20.3098701 L64.4348539,14.4828273 C64.4356211,14.3235967 64.3724854,14.1706084 64.2593809,14.0576268 C64.1462764,13.9446452 63.9925013,13.8809584 63.8319937,13.8806222 L63.8319937,13.8806222 Z" id="Shape"></path>
                    </g>
                    <g id="github-octocat">
                        <path d="M120.853906,119.637082 C120.853906,127.960182 101.483594,134.666565 77.6015625,134.666565 C53.7195313,134.666565 34.3492187,127.900304 34.3492187,119.637082 C34.3492187,111.313982 53.7195312,104.607599 77.6015625,104.607599 C101.483594,104.607599 120.853906,111.313982 120.853906,119.637082 Z" id="Shape" fill="#9EDCF2" fill-rule="nonzero"></path>
                        <g id="Clipped" transform="translate(52.937500, 114.367781)">
                            <mask id="mask-2" fill="white">
                                <use xlink:href="#path-1"></use>
                            </mask>
                            <g id="a"></g>
                            <path d="M67.9164062,5.26930091 C67.9164062,13.5924012 48.5460937,20.2987842 24.6640625,20.2987842 C0.78203125,20.2987842 -18.5882813,13.5325228 -18.5882813,5.26930091 C-18.5882813,-3.05379939 0.78203125,-9.76018237 24.6640625,-9.76018237 C48.5460937,-9.76018237 67.9164062,-3.05379939 67.9164062,5.26930091 Z" id="Shape" fill="#7DBCE7" fill-rule="nonzero" mask="url(#mask-2)"></path>
                        </g>
                        <path d="M28.2132812,75.3869301 L26.95,79.6981763 C26.95,79.6981763 26.6492187,81.2550152 28.0929687,81.5544073 C29.6570312,81.4945289 29.5367187,80.0574468 29.4164062,79.6382979 L28.2132812,75.3869301 Z" id="Shape" fill="#9EDCF2" fill-rule="nonzero"></path>
                        <path d="M153.879688,57.243769 L154,56.7048632 C141.307031,54.1899696 128.313281,54.1300912 120.432812,54.4893617 C121.696094,49.8787234 122.117188,44.4896657 122.117188,38.5617021 C122.117188,29.9990881 118.86875,23.1729483 113.695312,18.0234043 C114.597656,15.0893617 115.800781,8.56261398 112.492188,0.239513678 C112.492188,0.239513678 106.596875,-1.61671733 93.1820313,7.30516717 C87.9484375,5.98784195 82.3539063,5.32917933 76.759375,5.32917933 C70.6234375,5.32917933 64.4273438,6.10759878 58.5921875,7.66443769 C44.75625,-1.73647416 38.6804687,0.179635258 38.6804687,0.179635258 C34.7101562,10.0595745 37.1765625,17.4246201 37.8984375,19.2209726 C33.20625,24.2507599 30.3789062,30.6577508 30.3789062,38.5018237 C30.3789062,44.4297872 31.040625,49.7589666 32.725,54.3696049 C24.784375,54.0702128 12.271875,54.1899696 0,56.6449848 L0.1203125,57.1838906 C12.3921875,54.7288754 25.025,54.668997 32.9054688,54.9683891 C33.2664063,55.9264438 33.6875,56.8844985 34.1085938,57.7826748 C26.2882813,58.0221884 12.99375,59.0401216 0.240625,62.6328267 L0.42109375,63.1717325 C13.2945313,59.5790274 26.709375,58.6209726 34.4695313,58.381459 C39.1617188,67.0039514 48.3054688,72.6325228 64.6679688,74.368997 C62.321875,75.9258359 59.9757813,78.5604863 59.0132812,83.0513678 C55.825,84.5483283 45.8390625,88.2607903 39.8234375,77.9617021 C39.8234375,77.9617021 36.4546875,71.8541033 30.0179687,71.375076 C30.0179687,71.375076 23.7617187,71.2553191 29.596875,75.2671733 C29.596875,75.2671733 33.7476562,77.2431611 36.6351562,84.6082067 C36.6351562,84.6082067 40.425,97.1826748 58.5320312,93.1109422 L58.5320312,105.984802 C58.5320312,105.984802 58.1710937,110.595441 53.9,112.092401 C53.9,112.092401 51.3734375,113.828875 54.0804687,114.78693 C54.0804687,114.78693 65.8109375,115.744985 65.8109375,106.164438 L65.8109375,92.0331307 C65.8109375,92.0331307 65.3296875,86.4045593 68.096875,84.4884498 L68.096875,107.721277 C68.096875,107.721277 67.9164062,113.28997 65.0289062,115.385714 C65.0289062,115.385714 63.1039062,118.798784 67.3148437,117.900608 C67.3148437,117.900608 75.3757812,116.762918 75.7367187,107.362006 L75.9171875,83.8297872 L77.8421875,83.8297872 L78.0226562,107.362006 C78.3835937,116.70304 86.4445312,117.900608 86.4445312,117.900608 C90.6554687,118.858663 88.7304688,115.385714 88.7304688,115.385714 C85.8429687,113.28997 85.6625,107.721277 85.6625,107.721277 L85.6625,84.6680851 C88.4296875,86.8237082 87.9484375,92.0331307 87.9484375,92.0331307 L87.9484375,106.164438 C87.9484375,115.744985 99.6789063,114.78693 99.6789063,114.78693 C102.385938,113.828875 99.859375,112.092401 99.859375,112.092401 C95.6484375,110.535562 95.2273438,105.984802 95.2273438,105.984802 L95.2273438,87.4224924 C95.2273438,80.1772036 92.159375,76.3449848 89.1515625,74.368997 C106.596875,72.6325228 114.958594,67.0638298 118.808594,58.3215805 C126.448438,58.5012158 140.224219,59.4592705 153.338281,63.1717325 L153.51875,62.6328267 C140.464844,58.9802432 126.809375,58.0221884 119.049219,57.7826748 C119.410156,56.8844985 119.710938,55.9863222 120.011719,55.0282675 C128.072656,54.7288754 141.126563,54.7288754 153.879688,57.243769 L153.879688,57.243769 Z" id="Shape" fill="#010101" fill-rule="nonzero"></path>
                        <path d="M105.032812,38.1425532 C108.7625,41.5556231 110.988281,45.6273556 110.988281,49.9984802 C110.988281,70.5966565 95.5882812,71.1355623 76.5789062,71.1355623 C57.5695312,71.1355623 42.1695312,68.2613982 42.1695312,49.9984802 C42.1695312,45.6273556 44.3351562,41.5556231 48.0648437,38.2024316 C54.2609375,32.5738602 64.728125,35.5677812 76.5789062,35.5677812 C88.4296875,35.5677812 98.8367187,32.5139818 105.032812,38.1425532 L105.032812,38.1425532 Z" id="Shape" fill="#F5CCB3" fill-rule="nonzero"></path>
                        <path d="M65.1492187,51.0762918 C65.1492187,56.7647416 61.9609375,61.3155015 57.990625,61.3155015 C54.0203125,61.3155015 50.8320312,56.7048632 50.8320312,51.0762918 C50.8320312,45.3878419 54.0203125,40.8370821 57.990625,40.8370821 C61.9609375,40.7772036 65.1492187,45.3878419 65.1492187,51.0762918 L65.1492187,51.0762918 Z" id="Shape" fill="#FFFFFF" fill-rule="nonzero"></path>
                        <path d="M62.8632812,51.1960486 C62.8632812,54.9683891 60.6976563,58.0221884 58.1109375,58.0221884 C55.4640625,58.0221884 53.3585937,54.9683891 53.3585937,51.1960486 C53.3585937,47.4237082 55.5242187,44.3699088 58.1109375,44.3699088 C60.6976562,44.3699088 62.8632812,47.4237082 62.8632812,51.1960486 Z" id="Shape" fill="#AF5C51" fill-rule="nonzero"></path>
                        <path d="M103.589062,51.0762918 C103.589062,56.7647416 100.400781,61.3155015 96.4304687,61.3155015 C92.4601562,61.3155015 89.271875,56.7048632 89.271875,51.0762918 C89.271875,45.3878419 92.4601562,40.8370821 96.4304687,40.8370821 C100.340625,40.7772036 103.589062,45.3878419 103.589062,51.0762918 L103.589062,51.0762918 Z" id="Shape" fill="#FFFFFF" fill-rule="nonzero"></path>
                        <path d="M101.242969,51.1960486 C101.242969,54.9683891 99.0773438,58.0221884 96.490625,58.0221884 C93.84375,58.0221884 91.7382812,54.9683891 91.7382812,51.1960486 C91.7382812,47.4237082 93.9039063,44.3699088 96.490625,44.3699088 C99.1375,44.3699088 101.242969,47.4237082 101.242969,51.1960486 Z M78.5039062,60.1778116 C78.5039062,61.1358663 77.721875,61.9741641 76.6992188,61.9741641 C75.7367188,61.9741641 74.8945312,61.1957447 74.8945312,60.1778116 C74.8945312,59.1598784 75.6765625,58.381459 76.6992188,58.381459 C77.6617188,58.381459 78.5039062,59.1598784 78.5039062,60.1778116 Z M72.5484375,64.668693 C72.428125,64.3693009 72.6085937,64.0699088 72.909375,63.950152 C73.2101562,63.8303951 73.5109375,64.0100304 73.63125,64.3094225 C74.1125,65.6267477 75.315625,66.4650456 76.6992188,66.4650456 C78.0828125,66.4650456 79.2859375,65.5668693 79.7671875,64.3094225 C79.8875,64.0100304 80.1882813,63.8303951 80.4890625,63.950152 C80.7898438,64.0699088 80.9703125,64.3693009 80.85,64.668693 C80.2484375,66.4051672 78.5640625,67.6027356 76.6992187,67.6027356 C74.834375,67.6027356 73.15,66.4051672 72.5484375,64.668693 L72.5484375,64.668693 Z" id="Shape" fill="#AF5C51" fill-rule="nonzero"></path>
                        <path d="M32.7851562,72.8121581 C32.7851562,73.2911854 32.24375,73.6504559 31.521875,73.6504559 C30.8601562,73.6504559 30.2585937,73.2911854 30.2585937,72.8121581 C30.2585937,72.3331307 30.8,71.9738602 31.521875,71.9738602 C32.24375,71.9738602 32.7851562,72.3331307 32.7851562,72.8121581 Z M36.2742188,74.7282675 C36.2742188,75.2072948 35.7328125,75.5665653 35.0109375,75.5665653 C34.3492187,75.5665653 33.7476562,75.2072948 33.7476562,74.7282675 C33.7476562,74.2492401 34.2890625,73.8899696 35.0109375,73.8899696 C35.7328125,73.8899696 36.2742188,74.2492401 36.2742188,74.7282675 Z M38.3796875,77.2431611 C38.3796875,77.7221884 37.8382813,78.081459 37.1164062,78.081459 C36.4546875,78.081459 35.853125,77.7221884 35.853125,77.2431611 C35.853125,76.7641337 36.3945312,76.4048632 37.1164062,76.4048632 C37.8382813,76.3449848 38.3796875,76.7641337 38.3796875,77.2431611 Z M40.3046875,80.1173252 C40.3046875,80.5963526 39.7632812,80.9556231 39.0414063,80.9556231 C38.3796875,80.9556231 37.778125,80.5963526 37.778125,80.1173252 C37.778125,79.6382979 38.3195313,79.2790274 39.0414063,79.2790274 C39.7632813,79.2191489 40.3046875,79.6382979 40.3046875,80.1173252 Z M42.4101562,82.7519757 C42.4101562,83.231003 41.86875,83.5902736 41.146875,83.5902736 C40.4851563,83.5902736 39.8835938,83.231003 39.8835938,82.7519757 C39.8835938,82.2729483 40.425,81.9136778 41.146875,81.9136778 C41.86875,81.9136778 42.4101562,82.2729483 42.4101562,82.7519757 Z M45.2976562,85.087234 C45.2976562,85.5662614 44.75625,85.9255319 44.034375,85.9255319 C43.3726562,85.9255319 42.7710937,85.5662614 42.7710937,85.087234 C42.7710937,84.6082067 43.3125,84.2489362 44.034375,84.2489362 C44.75625,84.1890578 45.2976562,84.6082067 45.2976562,85.087234 Z M49.328125,86.5841945 C49.328125,87.0632219 48.7867187,87.4224924 48.0648437,87.4224924 C47.403125,87.4224924 46.8015625,87.0632219 46.8015625,86.5841945 C46.8015625,86.1051672 47.3429688,85.7458967 48.0648437,85.7458967 C48.7867187,85.7458967 49.328125,86.1051672 49.328125,86.5841945 Z M53.3585937,86.5841945 C53.3585937,87.0632219 52.8171875,87.4224924 52.0953125,87.4224924 C51.4335938,87.4224924 50.8320313,87.0632219 50.8320313,86.5841945 C50.8320313,86.1051672 51.3734375,85.7458967 52.0953125,85.7458967 C52.8171875,85.7458967 53.3585937,86.1051672 53.3585937,86.5841945 Z M57.4492187,85.9255319 C57.4492187,86.4045593 56.9078125,86.7638298 56.1859375,86.7638298 C55.5242188,86.7638298 54.9226563,86.4045593 54.9226563,85.9255319 C54.9226563,85.4465046 55.4640625,85.087234 56.1859375,85.087234 C56.8476562,85.087234 57.4492187,85.4465046 57.4492187,85.9255319 Z" id="Shape" fill="#C4E5D9" fill-rule="nonzero"></path>
                    </g>
                </g>
            </g>
        </g>
    </g>
</svg>