<?xml version="1.0" encoding="UTF-8"?>
<svg width="24px" height="24px" viewBox="0 0 24 24" version="1.1" xmlns="http://www.w3.org/2000/svg" xmlns:xlink="http://www.w3.org/1999/xlink">
    <title>Contact in Telegram</title>
    <path d="M12,24 C5.372583,24 0,18.627417 0,12 C0,5.372583 5.372583,0 12,0 C18.627417,0 24,5.372583 24,12 C24,18.627417 18.627417,24 12,24 Z M9.06673738,17.4329185 C9.43357949,17.4329185 9.60357949,17.2666685 9.80936896,17.0654185 L11.5898953,15.3766685 L15.2941058,18.0541685 C15.9741058,18.4216685 16.4662111,18.2291685 16.6362111,17.4329185 L19.0698953,6.22416847 C19.3204216,5.24416847 18.6941058,4.79791847 18.0409479,5.08666847 L3.75200054,10.4766685 C2.77673738,10.8616685 2.78568475,11.3954185 3.57305317,11.6141685 L7.24147423,12.7516685 L15.7235795,7.51041847 C16.1262111,7.27416847 16.4930532,7.40541847 16.1888426,7.67666847 L9.3172637,13.7316685 L9.06673738,17.4329185 Z" id="Combined-Shape"></path>
</svg>