<?xml version="1.0" encoding="UTF-8"?>
<svg width="24px" height="24px" viewBox="0 0 24 24" version="1.1" xmlns="http://www.w3.org/2000/svg" xmlns:xlink="http://www.w3.org/1999/xlink">
    <title>Contact in Facebook</title>
    <path d="M12,24 C5.372583,24 0,18.627417 0,12 C0,5.372583 5.372583,0 12,0 C18.627417,0 24,5.372583 24,12 C24,18.627417 18.627417,24 12,24 Z M17,4 L14.3,4 C12.3117749,4 10.7,5.52223185 10.7,7.4 L10.7,10.8 L8,10.8 L8,14.2 L10.7,14.2 L10.7,21 L14.3,21 L14.3,14.2 L17,14.2 L17,10.8 L14.3,10.8 L14.3,8.675 C14.3,8.0885 14.579,7.4 15.2,7.4 L17,7.4 L17,4 Z" id="Combined-Shape"></path>
</svg>