<?xml version="1.0" encoding="UTF-8"?>
<svg width="143px" height="17px" viewBox="0 0 143 17" version="1.1" xmlns="http://www.w3.org/2000/svg" xmlns:xlink="http://www.w3.org/1999/xlink">
    <!-- Generator: sketchtool 46.2 (44496) - http://www.bohemiancoding.com/sketch -->
    <title>5B56562D-6954-4C94-8BAF-6B961A19B86C</title>
    <desc>Created with sketchtool.</desc>
    <defs></defs>
    <g id="Page-1" stroke="none" stroke-width="1" fill="none" fill-rule="evenodd">
        <g id="Style" transform="translate(-1475.000000, -1161.000000)">
            <g id="Logo-desktop-Copy-3" transform="translate(1475.000000, 1161.000000)">
                <path d="M8.85548387,16.4567273 C11.9909677,16.4567273 13.8954839,14.8530909 15.08,13.0203636 L12.7574194,11.852 C12.0141935,13.1349091 10.5277419,14.0741818 8.85548387,14.0741818 C5.78967742,14.0741818 3.51354839,11.7603636 3.51354839,8.55309091 C3.51354839,5.34581818 5.78967742,3.032 8.85548387,3.032 C10.5277419,3.032 12.0141935,3.99418182 12.7574194,5.25418182 L15.08,4.08581818 C13.9187097,2.25309091 11.9909677,0.649454545 8.85548387,0.649454545 C4.28,0.649454545 0.726451613,3.85672727 0.726451613,8.55309091 C0.726451613,13.2494545 4.28,16.4567273 8.85548387,16.4567273 Z M26.4529032,16.1818182 L26.4529032,8.34690909 C26.4529032,6.07890909 25.2451613,4.84181818 22.8296774,4.84181818 C21.0645161,4.84181818 19.6012903,5.75818182 18.8580645,6.62872727 L18.8580645,0.901454545 L16.4193548,0.901454545 L16.4193548,16.1818182 L18.8580645,16.1818182 L18.8580645,8.46145455 C19.4387096,7.70545455 20.5070967,6.97236364 21.7380645,6.97236364 C23.1083871,6.97236364 24.0141935,7.49927273 24.0141935,9.21745455 L24.0141935,16.1818182 L26.4529032,16.1818182 Z M31.276129,16.1818182 L31.276129,8.64472727 C31.7638709,7.86581818 33.1341935,7.17854545 34.156129,7.17854545 C34.4580645,7.17854545 34.7135483,7.20145455 34.9225806,7.24727273 L34.9225806,4.86472727 C33.4593548,4.86472727 32.112258,5.68945455 31.276129,6.74327273 L31.276129,5.11672727 L28.8374193,5.11672727 L28.8374193,16.1818182 L31.276129,16.1818182 Z M41.1858064,16.4567273 C37.632258,16.4567273 35.4258064,13.8221818 35.4258064,10.6378182 C35.4258064,7.47636364 37.632258,4.84181818 41.1858064,4.84181818 C44.7858064,4.84181818 46.9690322,7.47636364 46.9690322,10.6378182 C46.9690322,13.8221818 44.7858064,16.4567273 41.1858064,16.4567273 Z M41.1858064,14.3261818 C43.2761289,14.3261818 44.4374193,12.608 44.4374193,10.6378182 C44.4374193,8.69054545 43.2761289,6.97236364 41.1858064,6.97236364 C39.1187096,6.97236364 37.9574193,8.69054545 37.9574193,10.6378182 C37.9574193,12.608 39.1187096,14.3261818 41.1858064,14.3261818 Z M58.6670967,16.1818182 L58.6670967,8.39272727 C58.6670967,6.12472727 57.4593547,4.84181818 55.0438708,4.84181818 C53.2787096,4.84181818 51.8387096,5.75818182 51.0954837,6.62872727 L51.0954837,5.11672727 L48.6567741,5.11672727 L48.6567741,16.1818182 L51.0954837,16.1818182 L51.0954837,8.46145455 C51.6529031,7.70545455 52.7212902,6.97236364 53.9754837,6.97236364 C55.3458063,6.97236364 56.228387,7.54509091 56.228387,9.26327273 L56.228387,16.1818182 L58.6670967,16.1818182 Z M66.1148386,16.4567273 C62.5612902,16.4567273 60.3548386,13.8221818 60.3548386,10.6378182 C60.3548386,7.47636364 62.5612902,4.84181818 66.1148386,4.84181818 C69.7148386,4.84181818 71.8980644,7.47636364 71.8980644,10.6378182 C71.8980644,13.8221818 69.7148386,16.4567273 66.1148386,16.4567273 Z M66.1148386,14.3261818 C68.2051611,14.3261818 69.3664515,12.608 69.3664515,10.6378182 C69.3664515,8.69054545 68.2051611,6.97236364 66.1148386,6.97236364 C64.0477418,6.97236364 62.8864515,8.69054545 62.8864515,10.6378182 C62.8864515,12.608 64.0477418,14.3261818 66.1148386,14.3261818 Z" id="Chronobank.io" fill="#4B8FB9"></path>
                <path d="M76.0245159,16.1818182 L73.5858063,16.1818182 L73.5858063,0.901454545 L76.0245159,0.901454545 L76.0245159,6.65163636 C76.9070966,5.48327273 78.2077418,4.84181818 79.6245159,4.84181818 C82.5045159,4.84181818 84.5948385,7.08690909 84.5948385,10.6607273 C84.5948385,14.3032727 82.4812901,16.4567273 79.6245159,16.4567273 C78.1612901,16.4567273 76.8838708,15.7694545 76.0245159,14.6698182 L76.0245159,16.1818182 Z M76.0245159,12.86 C76.5587095,13.6847273 77.7664514,14.3261818 78.9045159,14.3261818 C80.8554837,14.3261818 82.0864514,12.8141818 82.0864514,10.6607273 C82.0864514,8.50727273 80.8554837,6.97236364 78.9045159,6.97236364 C77.7664514,6.97236364 76.5587095,7.65963636 76.0245159,8.48436364 L76.0245159,12.86 Z" id="Combined-Shape" fill="#D9A162"></path>
                <path d="M95.5961288,16.1818182 L93.1574191,16.1818182 L93.1574191,14.9905455 C92.3212901,15.9298182 91.0206449,16.4567273 89.5341933,16.4567273 C87.6993546,16.4567273 85.6322578,15.2425455 85.6322578,12.7912727 C85.6322578,10.2483636 87.6993546,9.19454545 89.5341933,9.19454545 C91.0438708,9.19454545 92.3445159,9.67563636 93.1574191,10.6149091 L93.1574191,8.96545455 C93.1574191,7.68254545 92.089032,6.90363636 90.532903,6.90363636 C89.2787095,6.90363636 88.1870966,7.36181818 87.2116127,8.30109091 L86.212903,6.62872727 C87.5135482,5.41454545 89.1393546,4.84181818 90.9277417,4.84181818 C93.412903,4.84181818 95.5961288,5.87272727 95.5961288,8.85090909 L95.5961288,16.1818182 Z M90.4864514,14.8072727 C91.5548385,14.8072727 92.5999998,14.4178182 93.1574191,13.6618182 L93.1574191,11.9894545 C92.5999998,11.2334545 91.5548385,10.844 90.4864514,10.844 C89.1161288,10.844 88.0941933,11.6229091 88.0941933,12.8370909 C88.0941933,14.0283636 89.1161288,14.8072727 90.4864514,14.8072727 Z" id="Combined-Shape" fill="#D9A162"></path>
                <path d="M107.990967,16.1818182 L107.990967,8.39272727 C107.990967,6.12472727 106.783226,4.84181818 104.367742,4.84181818 C102.60258,4.84181818 101.16258,5.75818182 100.419355,6.62872727 L100.419355,5.11672727 L97.9806449,5.11672727 L97.9806449,16.1818182 L100.419355,16.1818182 L100.419355,8.46145455 C100.976774,7.70545455 102.045161,6.97236364 103.299355,6.97236364 C104.669677,6.97236364 105.552258,7.54509091 105.552258,9.26327273 L105.552258,16.1818182 L107.990967,16.1818182 Z" id="Path" fill="#D9A162"></path>
                <polygon id="Path" fill="#D9A162" points="120.873548 16.1818182 116.112258 10.1338182 120.780645 5.11672727 117.76129 5.11672727 112.814193 10.4545455 112.814193 0.901454545 110.375484 0.901454545 110.375484 16.1818182 112.814193 16.1818182 112.814193 13.2036364 114.370322 11.6229091 117.807742 16.1818182"></polygon>
                <path d="M123.072258,16.4338182 C123.954838,16.4338182 124.698064,15.7007273 124.698064,14.8301818 C124.698064,13.9596364 123.954838,13.2265455 123.072258,13.2265455 C122.189677,13.2265455 121.446451,13.9596364 121.446451,14.8301818 C121.446451,15.7007273 122.189677,16.4338182 123.072258,16.4338182 Z" id="Path" fill="#D9A162"></path>
                <path d="M127.941935,3.76509091 C128.778064,3.76509091 129.451613,3.10072727 129.451613,2.276 C129.451613,1.45127273 128.778064,0.786909091 127.941935,0.786909091 C127.129032,0.786909091 126.432258,1.45127273 126.432258,2.276 C126.432258,3.10072727 127.129032,3.76509091 127.941935,3.76509091 Z" id="Path" fill="#D9A162"></path>
                <polygon id="Path" fill="#D9A162" points="129.172903 16.1818182 129.172903 5.11672727 126.734193 5.11672727 126.734193 16.1818182"></polygon>
                <path d="M136.620645,16.4567273 C133.067096,16.4567273 130.860645,13.8221818 130.860645,10.6378182 C130.860645,7.47636364 133.067096,4.84181818 136.620645,4.84181818 C140.220645,4.84181818 142.403871,7.47636364 142.403871,10.6378182 C142.403871,13.8221818 140.220645,16.4567273 136.620645,16.4567273 Z M136.620645,14.3261818 C138.710967,14.3261818 139.872258,12.608 139.872258,10.6378182 C139.872258,8.69054545 138.710967,6.97236364 136.620645,6.97236364 C134.553548,6.97236364 133.392258,8.69054545 133.392258,10.6378182 C133.392258,12.608 134.553548,14.3261818 136.620645,14.3261818 Z" id="Combined-Shape" fill="#D9A162"></path>
            </g>
        </g>
    </g>
</svg>