<?xml version="1.0" encoding="UTF-8"?>
<svg width="180px" height="21px" viewBox="0 0 180 21" version="1.1" xmlns="http://www.w3.org/2000/svg" xmlns:xlink="http://www.w3.org/1999/xlink">
    <!-- Generator: sketchtool 46.2 (44496) - http://www.bohemiancoding.com/sketch -->
    <title>B03004CD-F395-4042-8E62-ED9BA46DAB5E</title>
    <desc>Created with sketchtool.</desc>
    <defs></defs>
    <g id="Page-1" stroke="none" stroke-width="1" fill="none" fill-rule="evenodd">
        <g id="Style" transform="translate(-1475.000000, -1024.000000)">
            <g id="Logo-desktop-Copy-2" transform="translate(1475.000000, 1024.000000)">
                <path d="M45.8554839,17.4567273 C48.9909677,17.4567273 50.8954839,15.8530909 52.08,14.0203636 L49.7574194,12.852 C49.0141935,14.1349091 47.5277419,15.0741818 45.8554839,15.0741818 C42.7896774,15.0741818 40.5135484,12.7603636 40.5135484,9.55309091 C40.5135484,6.34581818 42.7896774,4.032 45.8554839,4.032 C47.5277419,4.032 49.0141935,4.99418182 49.7574194,6.25418182 L52.08,5.08581818 C50.9187097,3.25309091 48.9909677,1.64945455 45.8554839,1.64945455 C41.28,1.64945455 37.7264516,4.85672727 37.7264516,9.55309091 C37.7264516,14.2494545 41.28,17.4567273 45.8554839,17.4567273 Z M63.4529032,17.1818182 L63.4529032,9.34690909 C63.4529032,7.07890909 62.2451613,5.84181818 59.8296774,5.84181818 C58.0645161,5.84181818 56.6012903,6.75818182 55.8580645,7.62872727 L55.8580645,1.90145455 L53.4193548,1.90145455 L53.4193548,17.1818182 L55.8580645,17.1818182 L55.8580645,9.46145455 C56.4387096,8.70545455 57.5070967,7.97236364 58.7380645,7.97236364 C60.1083871,7.97236364 61.0141935,8.49927273 61.0141935,10.2174545 L61.0141935,17.1818182 L63.4529032,17.1818182 Z M68.276129,17.1818182 L68.276129,9.64472727 C68.7638709,8.86581818 70.1341935,8.17854545 71.156129,8.17854545 C71.4580645,8.17854545 71.7135483,8.20145455 71.9225806,8.24727273 L71.9225806,5.86472727 C70.4593548,5.86472727 69.112258,6.68945455 68.276129,7.74327273 L68.276129,6.11672727 L65.8374193,6.11672727 L65.8374193,17.1818182 L68.276129,17.1818182 Z M78.1858064,17.4567273 C74.632258,17.4567273 72.4258064,14.8221818 72.4258064,11.6378182 C72.4258064,8.47636364 74.632258,5.84181818 78.1858064,5.84181818 C81.7858064,5.84181818 83.9690322,8.47636364 83.9690322,11.6378182 C83.9690322,14.8221818 81.7858064,17.4567273 78.1858064,17.4567273 Z M78.1858064,15.3261818 C80.2761289,15.3261818 81.4374193,13.608 81.4374193,11.6378182 C81.4374193,9.69054545 80.2761289,7.97236364 78.1858064,7.97236364 C76.1187096,7.97236364 74.9574193,9.69054545 74.9574193,11.6378182 C74.9574193,13.608 76.1187096,15.3261818 78.1858064,15.3261818 Z M95.6670967,17.1818182 L95.6670967,9.39272727 C95.6670967,7.12472727 94.4593547,5.84181818 92.0438708,5.84181818 C90.2787096,5.84181818 88.8387096,6.75818182 88.0954837,7.62872727 L88.0954837,6.11672727 L85.6567741,6.11672727 L85.6567741,17.1818182 L88.0954837,17.1818182 L88.0954837,9.46145455 C88.6529031,8.70545455 89.7212902,7.97236364 90.9754837,7.97236364 C92.3458063,7.97236364 93.228387,8.54509091 93.228387,10.2632727 L93.228387,17.1818182 L95.6670967,17.1818182 Z M103.114839,17.4567273 C99.5612902,17.4567273 97.3548386,14.8221818 97.3548386,11.6378182 C97.3548386,8.47636364 99.5612902,5.84181818 103.114839,5.84181818 C106.714839,5.84181818 108.898064,8.47636364 108.898064,11.6378182 C108.898064,14.8221818 106.714839,17.4567273 103.114839,17.4567273 Z M103.114839,15.3261818 C105.205161,15.3261818 106.366451,13.608 106.366451,11.6378182 C106.366451,9.69054545 105.205161,7.97236364 103.114839,7.97236364 C101.047742,7.97236364 99.8864515,9.69054545 99.8864515,11.6378182 C99.8864515,13.608 101.047742,15.3261818 103.114839,15.3261818 Z" id="Chronobank.io" fill="#4B8FB9"></path>
                <path d="M113.024516,17.1818182 L110.585806,17.1818182 L110.585806,1.90145455 L113.024516,1.90145455 L113.024516,7.65163636 C113.907097,6.48327273 115.207742,5.84181818 116.624516,5.84181818 C119.504516,5.84181818 121.594839,8.08690909 121.594839,11.6607273 C121.594839,15.3032727 119.48129,17.4567273 116.624516,17.4567273 C115.16129,17.4567273 113.883871,16.7694545 113.024516,15.6698182 L113.024516,17.1818182 Z M113.024516,13.86 C113.558709,14.6847273 114.766451,15.3261818 115.904516,15.3261818 C117.855484,15.3261818 119.086451,13.8141818 119.086451,11.6607273 C119.086451,9.50727273 117.855484,7.97236364 115.904516,7.97236364 C114.766451,7.97236364 113.558709,8.65963636 113.024516,9.48436364 L113.024516,13.86 Z" id="Combined-Shape" fill="#D9A162"></path>
                <path d="M132.596129,17.1818182 L130.157419,17.1818182 L130.157419,15.9905455 C129.32129,16.9298182 128.020645,17.4567273 126.534193,17.4567273 C124.699355,17.4567273 122.632258,16.2425455 122.632258,13.7912727 C122.632258,11.2483636 124.699355,10.1945455 126.534193,10.1945455 C128.043871,10.1945455 129.344516,10.6756364 130.157419,11.6149091 L130.157419,9.96545455 C130.157419,8.68254545 129.089032,7.90363636 127.532903,7.90363636 C126.278709,7.90363636 125.187097,8.36181818 124.211613,9.30109091 L123.212903,7.62872727 C124.513548,6.41454545 126.139355,5.84181818 127.927742,5.84181818 C130.412903,5.84181818 132.596129,6.87272727 132.596129,9.85090909 L132.596129,17.1818182 Z M127.486451,15.8072727 C128.554838,15.8072727 129.6,15.4178182 130.157419,14.6618182 L130.157419,12.9894545 C129.6,12.2334545 128.554838,11.844 127.486451,11.844 C126.116129,11.844 125.094193,12.6229091 125.094193,13.8370909 C125.094193,15.0283636 126.116129,15.8072727 127.486451,15.8072727 Z" id="Combined-Shape" fill="#D9A162"></path>
                <path d="M144.990967,17.1818182 L144.990967,9.39272727 C144.990967,7.12472727 143.783226,5.84181818 141.367742,5.84181818 C139.60258,5.84181818 138.16258,6.75818182 137.419355,7.62872727 L137.419355,6.11672727 L134.980645,6.11672727 L134.980645,17.1818182 L137.419355,17.1818182 L137.419355,9.46145455 C137.976774,8.70545455 139.045161,7.97236364 140.299355,7.97236364 C141.669677,7.97236364 142.552258,8.54509091 142.552258,10.2632727 L142.552258,17.1818182 L144.990967,17.1818182 Z" id="Path" fill="#D9A162"></path>
                <polygon id="Path" fill="#D9A162" points="157.873548 17.1818182 153.112258 11.1338182 157.780645 6.11672727 154.76129 6.11672727 149.814193 11.4545455 149.814193 1.90145455 147.375484 1.90145455 147.375484 17.1818182 149.814193 17.1818182 149.814193 14.2036364 151.370322 12.6229091 154.807742 17.1818182"></polygon>
                <path d="M160.072258,17.4338182 C160.954838,17.4338182 161.698064,16.7007273 161.698064,15.8301818 C161.698064,14.9596364 160.954838,14.2265455 160.072258,14.2265455 C159.189677,14.2265455 158.446451,14.9596364 158.446451,15.8301818 C158.446451,16.7007273 159.189677,17.4338182 160.072258,17.4338182 Z" id="Path" fill="#D9A162"></path>
                <path d="M164.941935,4.76509091 C165.778064,4.76509091 166.451613,4.10072727 166.451613,3.276 C166.451613,2.45127273 165.778064,1.78690909 164.941935,1.78690909 C164.129032,1.78690909 163.432258,2.45127273 163.432258,3.276 C163.432258,4.10072727 164.129032,4.76509091 164.941935,4.76509091 Z" id="Path" fill="#D9A162"></path>
                <polygon id="Path" fill="#D9A162" points="166.172903 17.1818182 166.172903 6.11672727 163.734193 6.11672727 163.734193 17.1818182"></polygon>
                <path d="M173.620645,17.4567273 C170.067096,17.4567273 167.860645,14.8221818 167.860645,11.6378182 C167.860645,8.47636364 170.067096,5.84181818 173.620645,5.84181818 C177.220645,5.84181818 179.403871,8.47636364 179.403871,11.6378182 C179.403871,14.8221818 177.220645,17.4567273 173.620645,17.4567273 Z M173.620645,15.3261818 C175.710967,15.3261818 176.872258,13.608 176.872258,11.6378182 C176.872258,9.69054545 175.710967,7.97236364 173.620645,7.97236364 C171.553548,7.97236364 170.392258,9.69054545 170.392258,11.6378182 C170.392258,13.608 171.553548,15.3261818 173.620645,15.3261818 Z" id="Combined-Shape" fill="#D9A162"></path>
                <g id="logo-chronobank-copy" fill-rule="nonzero">
                    <g id="Group-Copy-2">
                        <path d="M29.928798,4.22155263 C28.5413176,3.94661842 27.4460431,2.88086842 27.1634923,1.53106579 L29.2194395,1.53106579 C29.610183,1.53106579 29.928798,1.84026316 29.928798,2.22102632 L29.928798,4.22155263 Z M29.928798,15.3896842 C27.7592627,15.6936316 26.0420924,17.3647895 25.7297247,19.4755658 L5.75580022,19.4755658 C5.44343256,17.3647895 3.72626229,15.6936316 1.55672686,15.3896842 L1.55672686,5.61667105 C3.72626229,5.31272367 5.44343256,3.64184212 5.75580022,1.53106579 L25.7297247,1.53106579 C26.0420924,3.64184212 27.7592627,5.31272367 29.928798,5.61667105 L29.928798,15.3896842 Z M29.928798,18.785329 C29.928798,19.1663684 29.610183,19.4755658 29.2194395,19.4755658 L27.1634923,19.4755658 C27.4460431,18.1254868 28.5413176,17.0600132 29.928798,16.7848026 L29.928798,18.785329 Z M2.26608544,19.4755658 C1.87534189,19.4755658 1.55672686,19.1663684 1.55672686,18.785329 L1.55672686,16.7848026 C2.94420724,17.0600132 4.03948189,18.1254868 4.32203265,19.4755658 L2.26608544,19.4755658 Z M1.55672686,2.22102632 C1.55672686,1.84026316 1.87534189,1.53106579 2.26608544,1.53106579 L4.32203265,1.53106579 C4.03948189,2.88086842 2.94420724,3.94661842 1.55672686,4.22155263 L1.55672686,2.22102632 Z M29.2194395,0.150592105 L2.26608544,0.150592105 C1.09271889,0.150592105 0.138293685,1.07928947 0.138293685,2.22102632 L0.138293685,18.785329 C0.138293685,19.9273421 1.09271889,20.8560395 2.26608544,20.8560395 L29.2194395,20.8560395 C30.3930901,20.8560395 31.3472312,19.9273421 31.3472312,18.785329 L31.3472312,2.22102632 C31.3472312,1.07928947 30.3930901,0.150592105 29.2194395,0.150592105 L29.2194395,0.150592105 Z" id="Fill-49" fill="#D9A162"></path>
                        <path d="M15.8262499,3.70456579 C11.9287533,3.70456579 8.78235896,6.76614475 8.78235896,10.558579 C8.78235896,14.3512895 11.9287533,17.4128684 15.8262499,17.4128684 C19.7240304,17.4128684 22.8704247,14.3512895 22.8704247,10.558579 C22.8704247,6.76614475 19.7240304,3.70456579 15.8262499,3.70456579 Z M15.8262499,4.92311842 C19.0194993,4.92311842 21.6181143,7.45140788 21.6181143,10.558579 C21.6181143,13.6660263 19.0194993,16.1943158 15.8262499,16.1943158 C12.6330004,16.1943158 10.0346693,13.6660263 10.0346693,10.558579 C10.0346693,7.45140788 12.6330004,4.92311842 15.8262499,4.92311842 L15.8262499,4.92311842 Z" id="Fill-50" fill="#4B8FB9"></path>
                        <path d="M18.5344775,10.406329 L16.123851,10.406329 L16.123851,7.75618421 C16.123851,7.42101316 15.8418682,7.14690788 15.4976959,7.14690788 C15.1532395,7.14690788 14.8715407,7.42101316 14.8715407,7.75618421 L14.8715407,10.7111053 C14.8715407,10.7718947 14.8871591,10.8174868 14.8871591,10.8633553 C14.8715407,10.9089474 14.8715407,10.9700132 14.8715407,11.0156053 C14.8715407,11.3507763 15.1532395,11.6248816 15.4976959,11.6248816 L18.5344775,11.6248816 C18.8786499,11.6248816 19.1606327,11.3507763 19.1606327,11.0156053 C19.1606327,10.6804342 18.8786499,10.406329 18.5344775,10.406329" id="Fill-51" fill="#4B8FB9"></path>
                    </g>
                </g>
            </g>
        </g>
    </g>
</svg>