<?xml version="1.0" encoding="UTF-8"?>
<svg width="221px" height="26px" viewBox="0 0 221 26" version="1.1" xmlns="http://www.w3.org/2000/svg" xmlns:xlink="http://www.w3.org/1999/xlink">
    <!-- Generator: sketchtool 46.2 (44496) - http://www.bohemiancoding.com/sketch -->
    <title>9E23E089-0074-4328-B103-76DFC70105EE</title>
    <desc>Created with sketchtool.</desc>
    <defs></defs>
    <g id="Page-1" stroke="none" stroke-width="1" fill="none" fill-rule="evenodd">
        <g id="Style" transform="translate(-983.000000, -1160.000000)">
            <g id="Logo-desktop-Copy" transform="translate(983.000000, 1160.000000)">
                <path d="M13.076,25.432 C17.936,25.432 20.888,22.912 22.724,20.032 L19.124,18.196 C17.972,20.212 15.668,21.688 13.076,21.688 C8.324,21.688 4.796,18.052 4.796,13.012 C4.796,7.972 8.324,4.336 13.076,4.336 C15.668,4.336 17.972,5.848 19.124,7.828 L22.724,5.992 C20.924,3.112 17.936,0.592 13.076,0.592 C5.984,0.592 0.476,5.632 0.476,13.012 C0.476,20.392 5.984,25.432 13.076,25.432 Z M40.352,25 L40.352,12.688 C40.352,9.124 38.48,7.18 34.736,7.18 C32,7.18 29.732,8.62 28.58,9.988 L28.58,0.988 L24.8,0.988 L24.8,25 L28.58,25 L28.58,12.868 C29.48,11.68 31.136,10.528 33.044,10.528 C35.168,10.528 36.572,11.356 36.572,14.056 L36.572,25 L40.352,25 Z M47.8279999,25 L47.8279999,13.156 C48.5839999,11.932 50.7079999,10.852 52.2919999,10.852 C52.7599999,10.852 53.1559999,10.888 53.4799999,10.96 L53.4799999,7.216 C51.2119999,7.216 49.1239999,8.512 47.8279999,10.168 L47.8279999,7.612 L44.0479999,7.612 L44.0479999,25 L47.8279999,25 Z M63.1879999,25.432 C57.6799999,25.432 54.2599999,21.292 54.2599999,16.288 C54.2599999,11.32 57.6799999,7.18 63.1879999,7.18 C68.7679999,7.18 72.1519999,11.32 72.1519999,16.288 C72.1519999,21.292 68.7679999,25.432 63.1879999,25.432 Z M63.1879999,22.084 C66.4279999,22.084 68.2279999,19.384 68.2279999,16.288 C68.2279999,13.228 66.4279999,10.528 63.1879999,10.528 C59.9839999,10.528 58.1839999,13.228 58.1839999,16.288 C58.1839999,19.384 59.9839999,22.084 63.1879999,22.084 Z M90.2839998,25 L90.2839998,12.76 C90.2839998,9.196 88.4119998,7.18 84.6679998,7.18 C81.9319998,7.18 79.6999998,8.62 78.5479998,9.988 L78.5479998,7.612 L74.7679998,7.612 L74.7679998,25 L78.5479998,25 L78.5479998,12.868 C79.4119998,11.68 81.0679998,10.528 83.0119998,10.528 C85.1359998,10.528 86.5039998,11.428 86.5039998,14.128 L86.5039998,25 L90.2839998,25 Z M101.828,25.432 C96.3199998,25.432 92.8999998,21.292 92.8999998,16.288 C92.8999998,11.32 96.3199998,7.18 101.828,7.18 C107.408,7.18 110.792,11.32 110.792,16.288 C110.792,21.292 107.408,25.432 101.828,25.432 Z M101.828,22.084 C105.068,22.084 106.868,19.384 106.868,16.288 C106.868,13.228 105.068,10.528 101.828,10.528 C98.6239998,10.528 96.8239998,13.228 96.8239998,16.288 C96.8239998,19.384 98.6239998,22.084 101.828,22.084 Z" id="Chronobank.io" fill="#4B8FB9"></path>
                <path d="M117.188,25 L113.408,25 L113.408,0.988 L117.188,0.988 L117.188,10.024 C118.556,8.188 120.572,7.18 122.768,7.18 C127.232,7.18 130.472,10.708 130.472,16.324 C130.472,22.048 127.196,25.432 122.768,25.432 C120.5,25.432 118.52,24.352 117.188,22.624 L117.188,25 Z M117.188,19.78 C118.016,21.076 119.888,22.084 121.652,22.084 C124.676,22.084 126.584,19.708 126.584,16.324 C126.584,12.94 124.676,10.528 121.652,10.528 C119.888,10.528 118.016,11.608 117.188,12.904 L117.188,19.78 Z" id="Combined-Shape" fill="#D9A162"></path>
                <path d="M147.524,25 L143.744,25 L143.744,23.128 C142.448,24.604 140.432,25.432 138.128,25.432 C135.284,25.432 132.08,23.524 132.08,19.672 C132.08,15.676 135.284,14.02 138.128,14.02 C140.468,14.02 142.484,14.776 143.744,16.252 L143.744,13.66 C143.744,11.644 142.088,10.42 139.676,10.42 C137.732,10.42 136.04,11.14 134.528,12.616 L132.98,9.988 C134.996,8.08 137.516,7.18 140.288,7.18 C144.14,7.18 147.524,8.8 147.524,13.48 L147.524,25 Z M139.604,22.84 C141.26,22.84 142.88,22.228 143.744,21.04 L143.744,18.412 C142.88,17.224 141.26,16.612 139.604,16.612 C137.48,16.612 135.896,17.836 135.896,19.744 C135.896,21.616 137.48,22.84 139.604,22.84 Z" id="Combined-Shape" fill="#D9A162"></path>
                <path d="M166.736,25 L166.736,12.76 C166.736,9.196 164.864,7.18 161.12,7.18 C158.384,7.18 156.152,8.62 155,9.988 L155,7.612 L151.22,7.612 L151.22,25 L155,25 L155,12.868 C155.864,11.68 157.52,10.528 159.464,10.528 C161.588,10.528 162.956,11.428 162.956,14.128 L162.956,25 L166.736,25 Z" id="Path" fill="#D9A162"></path>
                <polygon id="Path" fill="#D9A162" points="186.704 25 179.324 15.496 186.56 7.612 181.88 7.612 174.212 16 174.212 0.988 170.432 0.988 170.432 25 174.212 25 174.212 20.32 176.624 17.836 181.952 25"></polygon>
                <path d="M190.112,25.396 C191.48,25.396 192.632,24.244 192.632,22.876 C192.632,21.508 191.48,20.356 190.112,20.356 C188.744,20.356 187.592,21.508 187.592,22.876 C187.592,24.244 188.744,25.396 190.112,25.396 Z" id="Path" fill="#D9A162"></path>
                <path d="M197.659999,5.488 C198.955999,5.488 199.999999,4.444 199.999999,3.148 C199.999999,1.852 198.955999,0.808 197.659999,0.808 C196.399999,0.808 195.319999,1.852 195.319999,3.148 C195.319999,4.444 196.399999,5.488 197.659999,5.488 Z" id="Path" fill="#D9A162"></path>
                <polygon id="Path" fill="#D9A162" points="199.567999 25 199.567999 7.612 195.787999 7.612 195.787999 25"></polygon>
                <path d="M211.111999,25.432 C205.603999,25.432 202.183999,21.292 202.183999,16.288 C202.183999,11.32 205.603999,7.18 211.111999,7.18 C216.691999,7.18 220.075999,11.32 220.075999,16.288 C220.075999,21.292 216.691999,25.432 211.111999,25.432 Z M211.111999,22.084 C214.351999,22.084 216.151999,19.384 216.151999,16.288 C216.151999,13.228 214.351999,10.528 211.111999,10.528 C207.907999,10.528 206.107999,13.228 206.107999,16.288 C206.107999,19.384 207.907999,22.084 211.111999,22.084 Z" id="Combined-Shape" fill="#D9A162"></path>
            </g>
        </g>
    </g>
</svg>