<?xml version="1.0" encoding="UTF-8"?>
<svg width="80px" height="80px" viewBox="0 0 80 80" version="1.1" xmlns="http://www.w3.org/2000/svg" xmlns:xlink="http://www.w3.org/1999/xlink">
    <!-- Generator: Sketch 46.2 (44496) - http://www.bohemiancoding.com/sketch -->
    <title>nem-xem</title>
    <desc>Created with Sketch.</desc>
    <defs></defs>
    <g id="Page-1" stroke="none" stroke-width="1" fill="none" fill-rule="evenodd">
        <g id="Desktop-2-ver.2" transform="translate(-864.000000, -7877.000000)" fill-rule="nonzero">
            <g id="bottom" transform="translate(0.000000, 6137.000000)">
                <g id="Partners" transform="translate(80.000000, 1548.000000)">
                    <g id="Group-67" transform="translate(768.000000, 164.000000)">
                        <g id="Group-63" transform="translate(16.000000, 24.000000)">
                            <g id="nem-xem" transform="translate(0.000000, 4.000000)">
                                <path d="M40.1137441,80 L39.6587678,79.7714286 C21.9146919,69.3333333 8.492891,52.1142857 3.03317536,31.5428571 C2.16113744,28.3047619 1.51658768,24.9904762 1.06161137,21.6380952 C0.644549763,18.2857143 0.417061611,14.8952381 0.379146919,11.5047619 C0.379146919,10.9333333 0.303317536,11.0095238 0.834123223,10.7428571 C7.507109,6.93333333 14.5592417,4.15238095 22.028436,2.4 C24.7962085,1.75238095 27.563981,1.25714286 30.3696682,0.914285714 C34.2369668,0.457142857 38.1042654,0.266666667 42.0094787,0.342857143 C44.2085308,0.380952381 46.3696682,0.533333333 48.5308057,0.761904762 C59.4123223,1.94285714 69.6113744,5.21904762 79.1658768,10.5904762 C79.3175355,10.6666667 79.4312796,10.7428571 79.5829384,10.8190476 C79.7345972,10.8952381 79.8104265,11.0095238 79.8104265,11.2 L79.8104265,11.7714286 C79.7725118,13.752381 79.6966825,15.6952381 79.5450237,17.6761905 C79.3175355,20.4952381 78.9383886,23.2761905 78.4075829,26.0571429 C77.2701422,32.0380952 75.4881517,37.7904762 73.0236967,43.3142857 C69.1184834,52.1142857 63.7725118,59.9619048 57.0236967,66.8190476 C52.1706161,71.7714286 46.7488152,76.0380952 40.7582938,79.5809524 C40.5308057,79.7333333 40.3412322,79.847619 40.1137441,80 L40.1137441,80 Z M4.01895735,13.447619 L4.01895735,13.9047619 C4.01895735,16.6857143 4.20853081,19.5047619 4.54976303,22.247619 C4.85308057,24.7619048 5.27014218,27.2380952 5.83886256,29.7142857 C5.95260664,30.1333333 6.06635071,30.552381 6.25592417,30.9714286 C9.66824645,38.247619 17.5545024,42.1333333 25.3649289,40.3428571 C31.3175355,38.9714286 36.1706161,34.3619048 37.8009479,28.4571429 C38.2559242,26.8190476 38.4075829,25.1428571 38.4834123,23.4666667 C38.521327,22.3619048 38.6350711,21.2571429 38.8246445,20.152381 C40.1137441,13.447619 44.549763,7.92380952 50.8056872,5.2952381 C51.1469194,5.14285714 51.5260664,5.02857143 51.8672986,4.87619048 C51.9052133,4.83809524 51.9810427,4.83809524 51.9810427,4.76190476 C50.9952607,4.41904762 45.1184834,3.80952381 41.5924171,3.73333333 C34.0094787,3.58095238 26.5781991,4.57142857 19.3364929,6.78095238 C13.9526066,8.41904762 8.87203791,10.6285714 4.01895735,13.447619 Z M59.943128,59.0857143 C60.1327014,58.9714286 60.2464455,58.8190476 60.3222749,58.7047619 C61.8388626,56.8 63.2796209,54.8190476 64.6066351,52.7619048 C69.3459716,45.3714286 72.6824645,37.4095238 74.5402844,28.8 C75.1848341,25.8666667 75.6018957,22.9333333 75.8672986,19.9619048 C76.056872,17.9428571 76.1327014,15.9238095 76.1327014,13.8666667 C76.1327014,13.7142857 76.1327014,13.6 76.0947867,13.447619 L75.5260664,13.1047619 C73.971564,12.2285714 72.3791469,11.3904762 70.7867299,10.6285714 C68.436019,9.52380952 66.0853081,8.53333333 63.6208531,7.73333333 C60.6255924,6.78095238 57.5924171,6.66666667 54.5592417,7.42857143 C45.8767773,9.52380952 40.3033175,18.0952381 41.971564,26.8952381 C42.8815166,31.7714286 45.4976303,35.5809524 49.6682464,38.247619 C49.9336493,38.4380952 50.2369668,38.5904762 50.5023697,38.7809524 C53.5734597,40.647619 55.9620853,43.2 57.6682464,46.3619048 C59.4881517,49.6761905 60.2843602,53.2571429 60.056872,57.0285714 C60.0947867,57.6761905 60.0189573,58.3619048 59.943128,59.0857143 L59.943128,59.0857143 Z M40.1137441,76.1142857 C40.2654028,76.0380952 40.4549763,75.9238095 40.6066351,75.8095238 C45.3838863,72.9904762 49.7819905,69.6380952 53.8009479,65.8285714 C54.0663507,65.6 54.2559242,65.2952381 54.4075829,64.9904762 C54.6729858,64.4952381 54.9383886,63.9619048 55.1658768,63.4666667 C57.0616114,59.5047619 57.478673,55.3904762 56.2274882,51.1238095 C53.7630332,42.8952381 45.8767773,38.1714286 37.9526066,39.1619048 C35.6777251,39.4285714 33.5924171,40.152381 31.6208531,41.2952381 C27.8672986,43.4285714 23.8483412,44.3047619 19.5260664,43.8857143 C17.4028436,43.6952381 15.3933649,43.1238095 13.4597156,42.2857143 C11.943128,41.6 10.5023697,40.7619048 9.21327014,39.7333333 C9.13744076,39.6571429 9.02369668,39.6190476 8.83412322,39.5047619 C8.87203791,39.6952381 8.90995261,39.8095238 8.9478673,39.8857143 C10.6540284,44.2285714 12.7393365,48.3428571 15.2037915,52.2666667 C17.8957346,56.4952381 20.9668246,60.4190476 24.4549763,64 C27.943128,67.5809524 31.7725118,70.7809524 35.9052133,73.5619048 C37.8009479,74.7809524 39.5829384,75.8857143 40.1137441,76.1142857 L40.1137441,76.1142857 Z" id="Shape" fill="#000000"></path>
                                <path d="M4.01895735,13.447619 C8.87203791,10.6285714 13.9526066,8.41904762 19.2985782,6.81904762 C26.5781991,4.64761905 33.971564,3.61904762 41.5545024,3.77142857 C45.0805687,3.84761905 50.957346,4.41904762 51.943128,4.8 C51.9810427,4.87619048 51.9052133,4.91428571 51.8293839,4.91428571 C51.4881517,5.06666667 51.1090047,5.18095238 50.7677725,5.33333333 C44.5118483,7.96190476 40.0758294,13.4857143 38.7867299,20.1904762 C38.5971564,21.2952381 38.4834123,22.4 38.4454976,23.5047619 C38.4075829,25.1809524 38.2559242,26.8571429 37.7630332,28.4952381 C36.0947867,34.4 31.2796209,39.0095238 25.3270142,40.3809524 C17.5165877,42.1714286 9.63033175,38.2857143 6.21800948,31.0095238 C6.02843602,30.5904762 5.87677725,30.1714286 5.80094787,29.752381 C5.23222749,27.2761905 4.81516588,24.8 4.51184834,22.2857143 C4.17061611,19.5047619 3.98104265,16.7238095 3.98104265,13.9428571 C4.01895735,13.752381 4.01895735,13.6380952 4.01895735,13.447619 Z" id="Shape" fill="#F7A800"></path>
                                <path d="M59.943128,59.0857143 C60.0189573,58.3619048 60.0947867,57.7142857 60.1327014,57.0285714 C60.3222749,53.2571429 59.5260664,49.6761905 57.7440758,46.3619048 C56.0379147,43.2 53.6492891,40.6857143 50.5781991,38.7809524 C50.3127962,38.5904762 50.0094787,38.4380952 49.7440758,38.247619 C45.535545,35.5809524 42.957346,31.8095238 42.0473934,26.8952381 C40.4170616,18.0571429 45.9526066,9.52380952 54.6350711,7.42857143 C57.7061611,6.7047619 60.7014218,6.78095238 63.6966825,7.73333333 C66.1611374,8.4952381 68.5118483,9.52380952 70.8625592,10.6285714 C72.492891,11.3904762 74.0473934,12.2285714 75.6018957,13.1047619 C75.7914692,13.2190476 75.943128,13.2952381 76.1706161,13.447619 C76.1706161,13.6 76.2085308,13.7142857 76.2085308,13.8666667 C76.2085308,15.8857143 76.0947867,17.9428571 75.943128,19.9619048 C75.6777251,22.9333333 75.2227488,25.9047619 74.6161137,28.8 C72.7582938,37.4095238 69.4597156,45.3714286 64.6824645,52.7619048 C63.3554502,54.8190476 61.9146919,56.8 60.3981043,58.7047619 C60.2464455,58.8190476 60.1706161,58.9714286 59.943128,59.0857143 L59.943128,59.0857143 Z" id="Shape" fill="#67B2E8"></path>
                                <path d="M40.1137441,76.1142857 C39.5450237,75.8857143 37.8009479,74.8190476 35.943128,73.5619048 C31.8104265,70.7809524 27.9810427,67.5809524 24.492891,64 C21.0047393,60.4190476 17.8957346,56.4952381 15.2417062,52.2666667 C12.7393365,48.3428571 10.6540284,44.2285714 8.98578199,39.8857143 C8.9478673,39.7714286 8.90995261,39.6952381 8.87203791,39.5047619 C9.06161137,39.6190476 9.13744076,39.6571429 9.25118483,39.7333333 C10.5781991,40.7619048 11.9810427,41.6380952 13.4976303,42.2857143 C15.4312796,43.1238095 17.4407583,43.6952381 19.563981,43.8857143 C23.8483412,44.3047619 27.8672986,43.4285714 31.6587678,41.2952381 C33.6303318,40.1904762 35.7535545,39.4666667 37.9905213,39.1619048 C45.9146919,38.1714286 53.8009479,42.8952381 56.2654028,51.1238095 C57.5165877,55.352381 57.1374408,59.4666667 55.2037915,63.4666667 C54.9383886,64 54.7109005,64.4952381 54.4454976,64.9904762 C54.2938389,65.2952381 54.1042654,65.6 53.8388626,65.8285714 C49.8199052,69.6380952 45.4218009,72.9904762 40.6445498,75.8095238 C40.4549763,75.9238095 40.2654028,76.0380952 40.1137441,76.1142857 Z" id="Shape" fill="#00C4B3"></path>
                            </g>
                        </g>
                    </g>
                </g>
            </g>
        </g>
    </g>
</svg>