<svg id="Layer_1" data-name="Layer 1" xmlns="http://www.w3.org/2000/svg" viewBox="0 0 118.008 118.008">
  <defs>
    <style>
      .cls-1 {
        fill: #f7f6fa;
      }

      .cls-2 {
        fill: #5745a5;
      }

      .cls-3 {
        fill: none;
        stroke: #5745a5;
        stroke-miterlimit: 10;
        stroke-width: 2px;
      }
    </style>
  </defs>
  <title>fa8f611b-7a9d-4c53-a39a-850b98ff27a9</title>
  <g>
    <path class="cls-1" d="M59,116.008a57,57,0,1,1,57-57A57.069,57.069,0,0,1,59,116.008Z" transform="translate(0)"/>
    <path class="cls-2" d="M59,4A55,55,0,1,1,4,59,55.066,55.066,0,0,1,59,4m0-4a59,59,0,1,0,59,59A59,59,0,0,0,59,0Z" transform="translate(0)"/>
  </g>
  <g>
    <g>
      <path class="cls-2" d="M59,23.2,28.275,41.66,53.558,57.182a10.41,10.41,0,0,0,10.893,0l19.5-11.973a4.119,4.119,0,0,0-.034-7.041ZM44.859,41.77,59,33.272l12.045,7.236a1.488,1.488,0,0,1,.012,2.543L60.079,49.794a2.055,2.055,0,0,1-2.151,0Z" transform="translate(0)"/>
      <polygon class="cls-2" points="59.004 63.136 28.275 44.27 28.275 76.034 39.602 82.988 39.602 63.46 59.004 75.371 78.406 63.46 78.406 82.988 89.733 76.034 89.733 44.27 59.004 63.136"/>
    </g>
    <polyline class="cls-3" points="89.733 76.034 59.082 94.808 28.275 76.034"/>
  </g>
</svg>
