<?xml version="1.0" encoding="UTF-8" standalone="no"?>
<svg
   xmlns:dc="http://purl.org/dc/elements/1.1/"
   xmlns:cc="http://creativecommons.org/ns#"
   xmlns:rdf="http://www.w3.org/1999/02/22-rdf-syntax-ns#"
   xmlns:svg="http://www.w3.org/2000/svg"
   xmlns="http://www.w3.org/2000/svg"
   xmlns:sodipodi="http://sodipodi.sourceforge.net/DTD/sodipodi-0.dtd"
   xmlns:inkscape="http://www.inkscape.org/namespaces/inkscape"
   viewBox="0 0 50 87"
   id="svg2"
   version="1.1"
   inkscape:version="0.91 r13725"
   sodipodi:docname="june.svg">
  <metadata
     id="metadata44">
    <rdf:RDF>
      <cc:Work
         rdf:about="">
        <dc:format>image/svg+xml</dc:format>
        <dc:type
           rdf:resource="http://purl.org/dc/dcmitype/StillImage" />
      </cc:Work>
    </rdf:RDF>
  </metadata>
  <sodipodi:namedview
     pagecolor="#ffffff"
     bordercolor="#666666"
     borderopacity="1"
     objecttolerance="10"
     gridtolerance="10"
     guidetolerance="10"
     inkscape:pageopacity="0"
     inkscape:pageshadow="2"
     inkscape:window-width="1920"
     inkscape:window-height="1004"
     id="namedview42"
     showgrid="false"
     inkscape:zoom="2.7126437"
     inkscape:cx="25"
     inkscape:cy="43.5"
     inkscape:window-x="0"
     inkscape:window-y="24"
     inkscape:window-maximized="1"
     inkscape:current-layer="svg2" />
  <!-- Generator: sketchtool 46.2 (44496) - http://www.bohemiancoding.com/sketch -->
  <title
     id="title4">095DA383-F5F0-46FA-904B-69C04F1EC51C</title>
  <desc
     id="desc6">Created with sketchtool.</desc>
  <defs
     id="defs8" />
  <g
     id="cgPage-1"
     transform="matrix(0.75902444,0,0,0.75902444,6.0100493,10.460346)"
     style="fill:none;fill-rule:evenodd;stroke:none;stroke-width:1">
    <g
       id="cgicns-roadmap"
       transform="translate(-187,-193)">
      <g
         id="cgico_06-copy"
         transform="translate(187,194)">
        <path
           d="m 36.846479,11.616198 c 1.690845,0 3.061972,1.367025 3.061972,3.053678 l 0,54.980248 c 0,1.686653 -1.370423,3.05438 -3.061972,3.05438 l -24.16338,0 c -1.69155,0 -3.061268,-1.367025 -3.061268,-3.05438 l 0,-54.980248 c 0,-1.686653 1.369718,-3.053678 3.061268,-3.053678 l 24.16338,0 0,0 z m 0,-2.1074377 -24.16338,0 c -2.8528173,0 -5.1739441,2.3153717 -5.1739441,5.1611157 l 0,54.980248 c 0,2.846446 2.3211268,5.161818 5.1739441,5.161818 l 24.16338,0 c 2.853521,0 5.174648,-2.315372 5.174648,-5.161818 l 0,-54.980248 C 42.020423,11.824132 39.699296,9.5087603 36.846479,9.5087603 l 0,0 z"
           id="cgShape"
           inkscape:connector-curvature="0"
           style="fill:#422f8b;fill-rule:nonzero" />
        <path
           d="m 0.42816901,40.716405 0,-31.2259091 c 0,-4.065248 3.30281689,-7.3598761 7.37957749,-7.3598761 l 24.7323945,0"
           id="path14"
           inkscape:connector-curvature="0"
           style="stroke:#768fff;stroke-width:0.69999999;stroke-linecap:round;stroke-linejoin:round;stroke-dasharray:3.5, 3.5" />
        <path
           d="m 49.452817,44.306074 0,31.225207 c 0,4.064545 -3.302817,7.359876 -7.379578,7.359876 l -24.732394,0"
           id="path16"
           inkscape:connector-curvature="0"
           style="stroke:#768fff;stroke-width:0.69999999;stroke-linecap:round;stroke-linejoin:round;stroke-dasharray:3.5, 3.5" />
        <path
           d="m 24.841549,66.020413 c 1.522535,0 2.756338,1.230042 2.756338,2.747397 0,1.51876 -1.233803,2.749504 -2.756338,2.749504 -1.522535,0 -2.755634,-1.230744 -2.755634,-2.749504 0,-1.517355 1.233099,-2.747397 2.755634,-2.747397 z"
           id="path18"
           inkscape:connector-curvature="0"
           style="stroke:#422f8b;stroke-width:0.69999999" />
        <path
           d="m 34.002817,0.27396694 c 0.951408,0 1.722535,0.76851236 1.722535,1.71756196 0,0.9490496 -0.771831,1.717562 -1.722535,1.717562 -0.950704,0 -1.721127,-0.7692149 -1.721127,-1.717562 0,-0.9483471 0.770423,-1.71756196 1.721127,-1.71756196 z"
           id="path20"
           inkscape:connector-curvature="0"
           style="fill:#ffffff;stroke:#422f8b;stroke-width:1.39999998" />
        <path
           d="m 15.678873,81.108265 c 0.951409,0 1.722535,0.769214 1.722535,1.716859 0,0.949752 -0.771831,1.717562 -1.722535,1.717562 -0.950704,0 -1.721126,-0.768512 -1.721126,-1.717562 0,-0.947645 0.770422,-1.716859 1.721126,-1.716859 z"
           id="path22"
           inkscape:connector-curvature="0"
           style="fill:#ffffff;stroke:#422f8b;stroke-width:1.39999998" />
        <path
           d="m 18.326761,13.85219 13.028169,0 c 0.51338,0 0.930281,0.415868 0.930281,0.927975 0,0.512108 -0.416901,0.927976 -0.930281,0.927976 l -13.028169,0 c -0.513381,0 -0.930986,-0.415868 -0.930986,-0.927976 0,-0.512107 0.417605,-0.927975 0.930986,-0.927975 z"
           id="path24"
           inkscape:connector-curvature="0"
           style="stroke:#422f8b;stroke-width:0.69999999" />
        <g
           id="cgGroup"
           transform="translate(10.56338,17.561983)">
          <rect
             id="cgRectangle-path"
             x="1.1746479"
             y="1.071281"
             width="26.058451"
             height="45.659752"
             style="fill:#768fff" />
          <path
             d="m 26.528873,1.7737603 0,44.2547937 -24.6492955,0 0,-44.2547937 24.6492955,0 0,0 z m 1.408451,-1.40495865 -27.46690146,0 0,47.06471035 27.46690146,0 0,-47.06471035 0,0 z"
             id="path28"
             inkscape:connector-curvature="0"
             style="fill:#422f8b;fill-rule:nonzero" />
        </g>
        <g
           id="g30"
           transform="translate(14.788732,33.016529)"
           style="fill-rule:nonzero">
          <path
             d="m 7.0373239,17.512107 c -4.0901408,0 -6.5316901,-2.506446 -6.5316901,-6.705165 l 0,-10.09462795 2.0823944,0 0,10.07074395 c 0,3.090909 1.5802817,4.793016 4.4492957,4.793016 2.8697184,0 4.4500001,-1.702107 4.4500001,-4.793016 l 0,-10.07074395 2.082394,0 0,10.09462795 c 7.04e-4,4.26124 -2.380281,6.705165 -6.5323941,6.705165 z"
             id="path32"
             inkscape:connector-curvature="0"
             style="fill:#ffffff" />
          <path
             d="m 13.21831,1.0635537 0,9.7433883 c 0,3.911405 -2.092254,6.353926 -6.1802818,6.353926 -4.0647888,0 -6.1795775,-2.465703 -6.1795775,-6.353926 l 0,-9.7433883 1.378169,0 0,9.7195043 c 0,3.200496 1.687324,5.144256 4.8014085,5.144256 3.1380278,0 4.8021128,-1.944463 4.8021128,-5.144256 l 0,-9.7195043 1.378169,0 0,0 z m 0.704225,-0.70247932 -0.704225,0 -1.378169,0 -0.70493,0 0,0.70247932 0,9.7195043 c 0,2.026653 -0.711267,4.441777 -4.0971828,4.441777 -2.6415493,0 -4.0971831,-1.577066 -4.0971831,-4.441777 l 0,-9.7195043 0,-0.70247932 -0.7042254,0 -1.378169,0 -0.70422535,0 0,0.70247932 0,9.7433883 c 0,4.418595 2.57323945,7.056405 6.88380285,7.056405 4.3112678,0 6.8845068,-2.63781 6.8845068,-7.056405 l 0,-9.7433883 0,-0.70247932 0,0 z"
             id="path34"
             inkscape:connector-curvature="0"
             style="fill:#422f8b" />
        </g>
        <g
           id="g36"
           transform="translate(30.28169,33.016529)"
           style="fill-rule:nonzero">
          <rect
             id="rect38"
             x="0.84366196"
             y="0.71231407"
             width="2.0584507"
             height="16.514587"
             style="fill:#ffffff" />
          <path
             d="m 2.55,1.0635537 0,15.8121073 -1.3542254,0 0,-15.8121073 1.3542254,0 0,0 z m 0.7042254,-0.70247932 -0.7042254,0 -1.3542254,0 -0.7042253,0 0,0.70247932 0,15.8121073 0,0.702479 0.7042253,0 1.3542254,0 0.7042254,0 0,-0.702479 0,-15.8121073 0,-0.70247932 0,0 z"
             id="path40"
             inkscape:connector-curvature="0"
             style="fill:#422f8b" />
        </g>
      </g>
    </g>
  </g>
</svg>
