<svg viewBox="0 0 23 32" xmlns="http://www.w3.org/2000/svg">
  <title>We are here</title>
  <path d="M11,15.2 C8.83030991,15.2 7.07142857,13.409139 7.07142857,11.2 C7.07142857,10.139134 7.48533044,9.12171839 8.2220805,8.37157288 C8.95883056,7.62142736 9.95807808,7.2 11,7.2 C13.1696901,7.2 14.9285714,8.990861 14.9285714,11.2 C14.9285714,12.260866 14.5146696,13.2782816 13.7779195,14.0284271 C13.0411694,14.7785726 12.0419219,15.2 11,15.2 L11,15.2 Z M11,1.42108547e-15 C4.92486775,-7.10542736e-16 5.07530526e-16,5.0144108 -8.8817842e-16,11.2 C5.07530526e-16,19.6 11,32 11,32 C11,32 22,19.6 22,11.2 C22,5.0144108 17.0751322,2.13162821e-15 11,1.42108547e-15 Z" id="clShape"/>
</svg>
