<?xml version="1.0" encoding="UTF-8"?>
<svg width="20px" height="11px" viewBox="0 0 20 11" version="1.1" xmlns="http://www.w3.org/2000/svg" xmlns:xlink="http://www.w3.org/1999/xlink">
    <!-- Generator: sketchtool 46.2 (44496) - http://www.bohemiancoding.com/sketch -->
    <title>0FFBD8B3-E5A7-45E4-88ED-F18D86151791</title>
    <desc>Created with sketchtool.</desc>
    <defs></defs>
    <g id="Page-1" stroke="none" stroke-width="1" fill="none" fill-rule="evenodd">
        <g id="Team-popups-Desktop" transform="translate(-363.000000, -2203.000000)">
            <g id="Popups">
                <g id="popup-apply" transform="translate(297.000000, 1672.000000)">
                    <g id="add-attach" transform="translate(64.000000, 524.000000)">
                        <g id="Group-23">
                            <g id="attachment">
                                <rect id="Rectangle-5" x="0" y="0" width="24" height="24"></rect>
                                <path d="M7.5,18 C4.46243388,18 2,15.5375661 2,12.5 C2,9.46243388 4.46243388,7 7.5,7 L18,7 C20.209139,7 22,8.790861 22,11 C22,13.209139 20.209139,15 18,15 L9.5,15 C8.11928813,15 7,13.8807119 7,12.5 C7,11.1192881 8.11928813,10 9.5,10 L17,10 L17,11.5 L9.5,11.5 C8.94771525,11.5 8.5,11.9477153 8.5,12.5 C8.5,13.0522847 8.94771525,13.5 9.5,13.5 L18,13.5 C18.6630412,13.5 19.298926,13.2366079 19.767767,12.767767 C20.2366079,12.298926 20.5,11.6630412 20.5,11 C20.5,10.3369588 20.2366079,9.70107399 19.767767,9.23223305 C19.298926,8.7633921 18.6630412,8.5 18,8.5 L7.5,8.5 C5.290861,8.5 3.5,10.290861 3.5,12.5 C3.5,14.709139 5.290861,16.5 7.5,16.5 L17,16.5 L17,18 L7.5,18 Z" id="Shape" fill="#2962FF" fill-rule="nonzero"></path>
                            </g>
                        </g>
                    </g>
                </g>
            </g>
        </g>
    </g>
</svg>