<?xml version="1.0" encoding="utf-8"?>
<!-- Generator: Adobe Illustrator 22.1.0, SVG Export Plug-In . SVG Version: 6.00 Build 0)  -->
<svg version="1.1" id="Layer_1" xmlns="http://www.w3.org/2000/svg" xmlns:xlink="http://www.w3.org/1999/xlink" x="0px" y="0px"
	 viewBox="0 0 38 25.5" style="enable-background:new 0 0 38 25.5;" xml:space="preserve">
<style type="text/css">
	.st0{fill:#302B5C;}
	.st1{fill:#D9A162;}
	.st2{fill:#5DB3ED;}
</style>
<path class="st0" d="M35.4,0H2.6C1.2,0,0,1.1,0,2.6V23c0,1.4,1.2,2.6,2.6,2.6h32.8c1.4,0,2.6-1.1,2.6-2.6V2.6C38,1.1,36.8,0,35.4,0
	L35.4,0z"/>
<path id="Fill-49" class="st1" d="M36.3,5c-1.7-0.3-3-1.7-3.4-3.3h2.5c0.5,0,0.9,0.4,0.9,0.9V5z M36.3,18.8c-2.6,0.4-4.7,2.4-5.1,5
	H6.8c-0.4-2.6-2.5-4.7-5.1-5V6.7c2.6-0.4,4.7-2.4,5.1-5h24.3c0.4,2.6,2.5,4.7,5.1,5V18.8z M36.3,23c0,0.5-0.4,0.9-0.9,0.9h-2.5
	c0.3-1.7,1.7-3,3.4-3.3V23z M2.6,23.8c-0.5,0-0.9-0.4-0.9-0.9v-2.5c1.7,0.3,3,1.7,3.4,3.3H2.6z M1.7,2.6c0-0.5,0.4-0.9,0.9-0.9h2.5
	C4.7,3.4,3.4,4.7,1.7,5V2.6z M35.4,0H2.6C1.2,0,0,1.1,0,2.6V23c0,1.4,1.2,2.6,2.6,2.6h32.8c1.4,0,2.6-1.1,2.6-2.6V2.6
	C38,1.1,36.8,0,35.4,0L35.4,0z"/>
<path id="Fill-50" class="st2" d="M19.1,4.4c-4.7,0-8.6,3.8-8.6,8.5c0,4.7,3.8,8.5,8.6,8.5c4.7,0,8.6-3.8,8.6-8.5
	C27.7,8.2,23.8,4.4,19.1,4.4z M19.1,5.9c3.9,0,7,3.1,7,7c0,3.8-3.2,7-7,7s-7-3.1-7-7C12,9,15.2,5.9,19.1,5.9L19.1,5.9z"/>
<path id="Fill-51" class="st2" d="M22.4,12.7h-2.9V9.4c0-0.4-0.3-0.8-0.8-0.8c-0.4,0-0.8,0.3-0.8,0.8V13c0,0.1,0,0.1,0,0.2
	c0,0.1,0,0.1,0,0.2c0,0.4,0.3,0.8,0.8,0.8h3.7c0.4,0,0.8-0.3,0.8-0.8C23.1,13,22.8,12.7,22.4,12.7"/>
</svg>
