<?xml version="1.0" encoding="UTF-8"?>
<svg width="368px" height="272px" viewBox="0 0 368 272" version="1.1" xmlns="http://www.w3.org/2000/svg" xmlns:xlink="http://www.w3.org/1999/xlink">
    <!-- Generator: sketchtool 46.2 (44496) - http://www.bohemiancoding.com/sketch -->
    <title>6919A830-685C-4699-9D0D-453720A3CA8A</title>
    <desc>Created with sketchtool.</desc>
    <defs>
        <filter x="-14.1%" y="-12.9%" width="127.8%" height="139.6%" filterUnits="objectBoundingBox" id="filter-1">
            <feOffset dx="0" dy="16" in="SourceAlpha" result="shadowOffsetOuter1"></feOffset>
            <feGaussianBlur stdDeviation="12" in="shadowOffsetOuter1" result="shadowBlurOuter1"></feGaussianBlur>
            <feColorMatrix values="0 0 0 0 0.462745098   0 0 0 0 0.560784314   0 0 0 0 1  0 0 0 0.2 0" type="matrix" in="shadowBlurOuter1" result="shadowMatrixOuter1"></feColorMatrix>
            <feMerge>
                <feMergeNode in="shadowMatrixOuter1"></feMergeNode>
                <feMergeNode in="SourceGraphic"></feMergeNode>
            </feMerge>
        </filter>
        <rect id="path-2" x="9.92417984" y="14.2971429" width="299.255087" height="192.217143"></rect>
    </defs>
    <g id="Page-1" stroke="none" stroke-width="1" fill="none" fill-rule="evenodd">
        <g id="laptop-cm" transform="translate(-1611.000000, -4205.000000)">
            <g id="Laptop-Copy-3" filter="url(#filter-1)" transform="translate(1635.000000, 4213.000000)">
                <path d="M319.948254,210.088571 C319.948256,210.085839 319.948258,210.083106 319.948258,210.080373 L319.948258,210.080373 L319.948258,8.74534161 C319.948258,3.91542281 316.032835,2.7365209e-14 311.202916,-1.77635684e-15 L311.202916,0 L8.74534161,0 L8.74534161,0 C3.91542281,8.87241691e-16 -2.3678513e-15,3.91542281 -1.77635684e-15,8.74534161 L0,8.74534161 L0,210.080373 C8.8312526e-18,210.083106 1.25385045e-06,210.085839 3.76100752e-06,210.088571 L0,224.385714 L319.948258,224.385714 L319.948258,210.088571 Z" id="Display" fill="#F7F9FF"></path>
                <mask id="mask-3" fill="white">
                    <use xlink:href="#path-2"></use>
                </mask>
                <g id="Screen-(Use-as-mask)"></g>
            </g>
        </g>
    </g>
</svg>