<svg id="Layer_1" data-name="Layer 1" xmlns="http://www.w3.org/2000/svg" viewBox="0 0 147.229 19.566">
  <defs>
    <style>
      .cls-1 {
        fill: #fff;
      }
    </style>
  </defs>
  <title>6aee1941-b8d8-4e1f-b444-f1626e516b0c</title>
  <g id="logo-chrono-bank-full">
    <g id="logo">
      <g id="txt-logo">
        <path id="Chronobank.io" class="cls-1" d="M46.574,16.127A5.3,5.3,0,0,0,51.265,13.5l-1.751-.893a3.429,3.429,0,0,1-2.941,1.7,4,4,0,0,1-4.026-4.219,4,4,0,0,1,4.026-4.219,3.467,3.467,0,0,1,2.941,1.7l1.751-.893a5.278,5.278,0,0,0-4.691-2.626,5.89,5.89,0,0,0-6.127,6.039A5.89,5.89,0,0,0,46.574,16.127Zm13.263-.21V9.93a2.412,2.412,0,0,0-2.731-2.678,4.041,4.041,0,0,0-2.993,1.365V4.241H52.275V15.917h1.838v-5.9A2.841,2.841,0,0,1,56.283,8.88c1.033,0,1.716.4,1.716,1.716v5.322Zm3.635,0V10.158a2.92,2.92,0,0,1,2.171-1.12,2.709,2.709,0,0,1,.578.053V7.269A3.611,3.611,0,0,0,63.472,8.7V7.462H61.634v8.455Zm7.469.21A4.237,4.237,0,0,1,66.6,11.681a4.351,4.351,0,1,1,8.7,0A4.231,4.231,0,0,1,70.941,16.127Zm0-1.628a2.544,2.544,0,0,0,2.451-2.818,2.465,2.465,0,1,0-4.884,0A2.541,2.541,0,0,0,70.941,14.5Zm13.176,1.418V9.965a2.437,2.437,0,0,0-2.731-2.713A4,4,0,0,0,78.41,8.617V7.462H76.572v8.455H78.41v-5.9A2.783,2.783,0,0,1,80.581,8.88c1.033,0,1.7.438,1.7,1.751v5.287Zm5.613.21a4.237,4.237,0,0,1-4.341-4.446,4.351,4.351,0,1,1,8.7,0A4.231,4.231,0,0,1,89.73,16.127Zm0-1.628a2.544,2.544,0,0,0,2.451-2.818,2.465,2.465,0,1,0-4.884,0A2.541,2.541,0,0,0,89.73,14.5Z"/>
        <path id="Combined-Shape" class="cls-1" d="M97.2,15.917H95.361V4.241H97.2V8.635a3.343,3.343,0,0,1,2.713-1.383c2.171,0,3.746,1.716,3.746,4.446,0,2.783-1.593,4.429-3.746,4.429A3.4,3.4,0,0,1,97.2,14.762Zm0-2.538A2.729,2.729,0,0,0,99.37,14.5c1.47,0,2.4-1.155,2.4-2.8s-.928-2.818-2.4-2.818A2.759,2.759,0,0,0,97.2,10.035Z"/>
        <path id="Combined-Shape-2" data-name="Combined-Shape" class="cls-1" d="M111.95,15.917h-1.838v-.91a3.569,3.569,0,0,1-2.731,1.12,2.808,2.808,0,0,1-2.941-2.8,2.723,2.723,0,0,1,2.941-2.748,3.5,3.5,0,0,1,2.731,1.085V10.4c0-.98-.805-1.575-1.978-1.575a3.462,3.462,0,0,0-2.5,1.068l-.753-1.278a5.028,5.028,0,0,1,3.554-1.365c1.873,0,3.519.788,3.519,3.063Zm-3.851-1.05a2.475,2.475,0,0,0,2.013-.875V12.713a2.475,2.475,0,0,0-2.013-.875,1.6,1.6,0,0,0-1.8,1.523A1.6,1.6,0,0,0,108.1,14.867Z"/>
        <path id="Path" class="cls-1" d="M121.292,15.917V9.965a2.437,2.437,0,0,0-2.731-2.713,4,4,0,0,0-2.976,1.365V7.462h-1.838v8.455h1.838v-5.9a2.783,2.783,0,0,1,2.171-1.138c1.033,0,1.7.438,1.7,1.751v5.287Z"/>
        <polygon id="Path-2" data-name="Path" class="cls-1" points="131.002 15.917 127.413 11.296 130.932 7.462 128.656 7.462 124.927 11.541 124.927 4.241 123.089 4.241 123.089 15.917 124.927 15.917 124.927 13.641 126.1 12.433 128.691 15.917 131.002 15.917"/>
        <path id="Path-3" data-name="Path" class="cls-1" d="M132.659,16.109a1.225,1.225,0,1,0-1.225-1.225A1.24,1.24,0,0,0,132.659,16.109Z"/>
        <path id="Path-4" data-name="Path" class="cls-1" d="M136.329,6.429a1.138,1.138,0,1,0-1.138-1.138A1.136,1.136,0,0,0,136.329,6.429Z"/>
        <polygon id="Path-5" data-name="Path" class="cls-1" points="137.257 15.917 137.257 7.462 135.419 7.462 135.419 15.917 137.257 15.917"/>
        <path id="Combined-Shape-3" data-name="Combined-Shape" class="cls-1" d="M142.87,16.127a4.237,4.237,0,0,1-4.341-4.446,4.351,4.351,0,1,1,8.7,0A4.231,4.231,0,0,1,142.87,16.127Zm0-1.628a2.544,2.544,0,0,0,2.451-2.818,2.465,2.465,0,1,0-4.884,0A2.541,2.541,0,0,0,142.87,14.5Z"/>
      </g>
      <g id="logo-chronobank">
        <g id="Group-Copy">
          <path id="Fill-49" class="cls-1" d="M27.767,3.847A3.292,3.292,0,0,1,25.189,1.3h1.916a.657.657,0,0,1,.661.652Zm0,10.553a4.6,4.6,0,0,0-3.914,3.861H5.236A4.6,4.6,0,0,0,1.322,14.4V5.165A4.6,4.6,0,0,0,5.236,1.3H23.853a4.6,4.6,0,0,0,3.914,3.861Zm0,3.209a.657.657,0,0,1-.661.652H25.189a3.292,3.292,0,0,1,2.577-2.543Zm-25.784.652a.657.657,0,0,1-.661-.652v-1.89A3.292,3.292,0,0,1,3.9,18.261Zm-.661-16.3A.657.657,0,0,1,1.983,1.3H3.9A3.292,3.292,0,0,1,1.322,3.847ZM27.106,0H1.983A1.972,1.972,0,0,0,0,1.956V17.609a1.972,1.972,0,0,0,1.983,1.957H27.106a1.972,1.972,0,0,0,1.983-1.957V1.956A1.972,1.972,0,0,0,27.106,0Z"/>
          <path id="Fill-50" class="cls-1" d="M14.622,3.358a6.478,6.478,0,1,0,6.566,6.477A6.513,6.513,0,0,0,14.622,3.358Zm0,1.151a5.326,5.326,0,1,1-5.4,5.325,5.369,5.369,0,0,1,5.4-5.325Z"/>
          <path id="Fill-51" class="cls-1" d="M17.147,9.691H14.9v-2.5a.584.584,0,0,0-1.167,0V9.979c0,.057.015.1.015.144a.484.484,0,0,0-.015.144.581.581,0,0,0,.584.576h2.831a.576.576,0,1,0,0-1.151"/>
        </g>
      </g>
    </g>
  </g>
</svg>
