<svg viewBox="0 0 18 18" xmlns="http://www.w3.org/2000/svg">
  <!-- Generator: Sketch 45.2 (43514) - http://www.bohemiancoding.com/sketch -->
  <title>login-variant</title>
  <desc>Created with Sketch.</desc>
  <defs/>
  <g id="bnPage-1" stroke="none" stroke-width="1" fill="none" fill-rule="evenodd">
    <g id="bnMobile-320-Copy" transform="translate(-19.000000, -424.000000)">
      <g id="bnMenu-mob">
        <g id="bnsignin" transform="translate(16.000000, 421.000000)">
          <g id="bnlogin-variant">
            <rect id="bnRectangle-7" x="0" y="0" width="24" height="24"/>
            <path d="M19,3 L5,3 C3.89,3 3,3.89 3,5 L3,9 L5,9 L5,5 L19,5 L19,19 L5,19 L5,15 L3,15 L3,19 C3,20.1045695 3.8954305,21 5,21 L19,21 C20.1045695,21 21,20.1045695 21,19 L21,5 C21,3.89 20.1,3 19,3 L19,3 Z M10.08,15.58 L11.5,17 L16.5,12 L11.5,7 L10.08,8.41 L12.67,11 L3,11 L3,13 L12.67,13 L10.08,15.58 Z" id="bnShape" fill="#768FFF" fill-rule="nonzero"/>
          </g>
        </g>
      </g>
    </g>
  </g>
</svg>
