<svg viewBox="0 0 20 20" xmlns="http://www.w3.org/2000/svg">
  <title>Menu</title>
  <g fill="#FFFFFF">
    <path d="M4.775,19.1250038 L4.775,14.9562538 L3.74375,14.9562538 L2.60625,17.7000038 L1.475,14.9562538 L0.44375,14.9562538 L0.44375,19.1250038 L1.175,19.1250038 L1.175,16.0312538 L2.45,19.1250038 L2.7625,19.1250038 L4.04375,16.0312538 L4.04375,19.1250038 L4.775,19.1250038 Z M9.26875003,19.1250038 L9.26875003,18.4812538 L7.14375003,18.4812538 L7.14375003,17.3250038 L9.22500003,17.3250038 L9.22500003,16.6812538 L7.14375003,16.6812538 L7.14375003,15.6000038 L9.26875003,15.6000038 L9.26875003,14.9562538 L6.41250003,14.9562538 L6.41250003,19.1250038 L9.26875003,19.1250038 Z M14.3812501,19.1250038 L14.3812501,14.9562538 L13.6500001,14.9562538 L13.6500001,17.8500038 L11.5187501,14.9562538 L10.7687501,14.9562538 L10.7687501,19.1250038 L11.5000001,19.1250038 L11.5000001,16.1500038 L13.6750001,19.1250038 L14.3812501,19.1250038 Z M17.8250001,19.2000038 C19.0312501,19.2000038 19.6250001,18.5125038 19.6250001,17.4750038 L19.6250001,14.9562538 L18.8875001,14.9562538 L18.8875001,17.4562538 C18.8875001,18.1187538 18.5187501,18.5500038 17.8250001,18.5500038 C17.1250001,18.5500038 16.7562501,18.1187538 16.7562501,17.4562538 L16.7562501,14.9562538 L16.0187501,14.9562538 L16.0187501,17.4812538 C16.0187501,18.5062538 16.6125001,19.2000038 17.8250001,19.2000038 Z" id="btmenu"/>
    <circle id="btOval" cx="2.5" cy="2.5" r="2.5"/>
    <circle id="btOval-Copy" cx="10" cy="2.5" r="2.5"/>
    <circle id="btOval-Copy-2" cx="17.5" cy="2.5" r="2.5"/>
    <circle id="btOval-Copy-5" cx="2.5" cy="10" r="2.5"/>
    <circle id="btOval-Copy-4" cx="10" cy="10" r="2.5"/>
    <circle id="btOval-Copy-3" cx="17.5" cy="10" r="2.5"/>
  </g>
</svg>
